<svg width="24" height="26" viewBox="0 0 24 26" fill="none" xmlns="http://www.w3.org/2000/svg">
<path d="M8.50403 21.3258C2.96557 23.0379 2.96557 18.4723 0.750183 17.9016M16.2579 24.75V20.3328C16.2994 19.7885 16.2281 19.2414 16.0485 18.7277C15.869 18.2141 15.5854 17.7457 15.2166 17.3537C18.6948 16.9542 22.3502 15.596 22.3502 9.36392C22.3499 7.77032 21.755 6.23785 20.6886 5.08366C21.1936 3.68945 21.1579 2.14838 20.589 0.780582C20.589 0.780582 19.2819 0.381091 16.2579 2.46986C13.7191 1.76084 11.0428 1.76084 8.50403 2.46986C5.48003 0.381091 4.17295 0.780582 4.17295 0.780582C3.60401 2.14838 3.56831 3.68945 4.07326 5.08366C2.99894 6.24641 2.40344 7.79274 2.41172 9.39816C2.41172 15.5846 6.06711 16.9428 9.54526 17.388C9.18083 17.776 8.89977 18.2388 8.72037 18.7461C8.54097 19.2535 8.46726 19.7941 8.50403 20.3328V24.75" stroke="#1F1F1F" stroke-width="1.5" stroke-linecap="round" stroke-linejoin="round"/>
</svg>
