<svg width="16" height="18" viewBox="0 0 16 18" fill="none" xmlns="http://www.w3.org/2000/svg">
<path d="M5.91941 14.4672C2.2271 15.6086 2.2271 12.5649 0.750181 12.1844M11.0886 16.75V13.8052C11.1163 13.4423 11.0688 13.0776 10.9491 12.7352C10.8294 12.3927 10.6403 12.0805 10.3945 11.8191C12.7133 11.5528 15.1502 10.6473 15.1502 6.49261C15.15 5.43022 14.7534 4.40856 14.0425 3.63911C14.3791 2.70963 14.3553 1.68225 13.976 0.770388C13.976 0.770388 13.1046 0.504061 11.0886 1.89657C9.3961 1.42389 7.61196 1.42389 5.91941 1.89657C3.90341 0.504061 3.03203 0.770388 3.03203 0.770388C2.65274 1.68225 2.62893 2.70963 2.96557 3.63911C2.24935 4.41427 1.85235 5.44516 1.85787 6.51544C1.85787 10.6397 4.2948 11.5452 6.61357 11.842C6.37061 12.1007 6.18324 12.4092 6.06364 12.7474C5.94404 13.0857 5.8949 13.4461 5.91941 13.8052V16.75" stroke="#1F1F1F" stroke-width="1.5" stroke-linecap="round" stroke-linejoin="round"/>
</svg>
