<svg width="26" height="25" viewBox="0 0 26 25" fill="none" xmlns="http://www.w3.org/2000/svg">
<path d="M8.90479 23.5429C8.91105 22.6347 8.91105 21.7266 8.91732 20.8185C8.91732 20.0606 8.92358 19.3091 8.92358 18.5512C8.92358 17.2109 8.92984 15.8644 8.92984 14.5241C8.92984 13.5533 8.93611 12.5888 8.93611 11.618C8.93611 10.6347 8.92984 9.65143 8.92358 8.66814C8.92358 8.51156 8.91732 8.35498 8.91105 8.19841C8.91105 8.16083 8.91105 8.11699 8.91105 8.07941C8.97995 8.06062 13.9528 8.05436 14.0593 8.07315C14.0593 8.78087 14.0593 9.48859 14.0593 10.2026C14.0655 10.2026 14.0718 10.2088 14.0781 10.2088C14.0969 10.1838 14.1156 10.1587 14.1344 10.1274C14.4163 9.70154 14.7357 9.30697 15.1177 8.9625C15.7252 8.41135 16.433 8.04809 17.2346 7.85394C17.8171 7.71615 18.4058 7.67231 19.0008 7.69736C19.5895 7.72241 20.1657 7.8101 20.7294 7.99799C22.1073 8.44893 23.1156 9.33828 23.7795 10.6285C24.0927 11.2422 24.2994 11.8936 24.4309 12.5638C24.4998 12.9145 24.5436 13.2652 24.5749 13.6222C24.5812 13.6911 24.5812 13.7663 24.5812 13.8352C24.5812 13.8727 24.5937 13.9103 24.6 13.9416C24.6 17.142 24.6 20.3362 24.6 23.5366C22.8902 23.5366 21.1741 23.5366 19.4643 23.5366C19.4643 23.5053 19.4643 23.474 19.4643 23.4427C19.4643 20.7057 19.4643 17.9625 19.4643 15.2255C19.4643 14.8372 19.4392 14.4489 19.3703 14.0606C19.3015 13.6786 19.195 13.3153 19.0133 12.9708C18.7754 12.5136 18.4309 12.1629 17.9486 11.9562C17.6668 11.8372 17.3724 11.7746 17.0655 11.7558C16.7461 11.737 16.4267 11.7621 16.1198 11.8435C15.5374 12.0001 15.0676 12.332 14.6981 12.808C14.4476 13.1337 14.2472 13.4907 14.147 13.8915C14.0781 14.1859 14.0593 14.4865 14.0593 14.7871C14.0593 17.6681 14.0593 20.5491 14.0593 23.4364C14.0593 23.4677 14.0593 23.499 14.0593 23.5303C12.3369 23.5429 10.6209 23.5429 8.90479 23.5429Z" stroke="#1F1F1F" stroke-width="1.2" stroke-miterlimit="10"/>
<path d="M0.91942 23.543C0.91942 23.5054 0.91942 23.4616 0.91942 23.424C0.91942 18.3509 0.91942 13.2778 0.91942 8.20477C0.91942 8.16092 0.91942 8.11708 0.91942 8.07324C2.64176 8.07324 4.35157 8.07324 6.06765 8.07324C6.06765 8.12335 6.06765 8.16719 6.06765 8.20477C6.06765 10.829 6.06765 13.4532 6.06765 16.0712C6.06765 18.52 6.06765 20.9751 6.06765 23.424C6.06765 23.4616 6.07391 23.5054 6.07391 23.543C4.35783 23.543 2.6355 23.543 0.91942 23.543Z" stroke="#1F1F1F" stroke-width="1.2" stroke-miterlimit="10"/>
<path d="M3.82547 0.607581C3.91315 0.620107 3.99457 0.632633 4.08226 0.64516C4.58956 0.720316 5.05303 0.901945 5.4476 1.22762C5.9048 1.59714 6.18664 2.07313 6.32443 2.64307C6.46221 3.2318 6.4309 3.808 6.18664 4.36541C5.87975 5.06687 5.34113 5.52407 4.62714 5.78086C4.27641 5.90612 3.91315 5.95622 3.54363 5.96249C3.03006 5.96875 2.53528 5.88733 2.07182 5.6556C1.28894 5.26729 0.819207 4.63472 0.656368 3.77668C0.637579 3.69526 0.61879 3.61384 0.6 3.53242C0.6 3.36332 0.6 3.19422 0.6 3.02512C0.61879 2.93743 0.637579 2.85602 0.656368 2.76833C0.775366 2.14203 1.07599 1.62219 1.57704 1.22136C1.9904 0.895681 2.46013 0.714053 2.9737 0.638897C3.05512 0.62637 3.13654 0.613844 3.21795 0.601318C3.42464 0.607581 3.62505 0.607581 3.82547 0.607581Z" stroke="#1F1F1F" stroke-width="1.2" stroke-miterlimit="10"/>
</svg>
